<?xml version="1.0" standalone="no"?>
<!DOCTYPE svg PUBLIC "-//W3C//DTD SVG 20010904//EN"
 "http://www.w3.org/TR/2001/REC-SVG-20010904/DTD/svg10.dtd">
<svg version="1.0" xmlns="http://www.w3.org/2000/svg"
 width="5906.000000pt" height="5906.000000pt" viewBox="0 0 5906.000000 5906.000000"
 preserveAspectRatio="xMidYMid meet">
<metadata>
Created by potrace 1.16, written by Peter Selinger 2001-2019
</metadata>
<g transform="translate(0.000000,5906.000000) scale(0.100000,-0.100000)"
fill="#000000" stroke="none">
<path d="M0 29530 l0 -29530 29530 0 29530 0 0 29530 0 29530 -29530 0 -29530
0 0 -29530z m17840 26478 l-25 -11 35 -8 c19 -4 127 -15 240 -24 121 -9 238
-23 285 -35 44 -11 139 -27 212 -35 72 -8 174 -26 227 -40 53 -13 126 -27 164
-30 82 -8 148 -21 227 -47 33 -10 96 -23 140 -29 44 -5 109 -21 145 -34 36
-13 95 -29 132 -35 76 -12 86 -14 148 -42 25 -11 79 -26 120 -33 41 -6 98 -22
125 -34 28 -13 79 -27 115 -32 35 -5 92 -23 126 -40 34 -16 90 -35 125 -41 35
-6 82 -21 105 -34 23 -13 67 -29 100 -35 32 -6 77 -21 99 -34 22 -13 61 -29
88 -35 26 -5 75 -23 110 -39 34 -16 78 -32 97 -36 19 -4 51 -17 70 -30 19 -13
61 -31 93 -40 31 -9 76 -27 100 -40 23 -13 62 -29 86 -35 24 -6 60 -22 80 -35
20 -13 56 -29 81 -35 25 -7 54 -20 65 -31 12 -10 47 -28 78 -38 32 -11 69 -29
84 -41 14 -11 44 -25 67 -31 22 -6 59 -23 81 -39 22 -15 57 -32 77 -38 20 -5
57 -24 82 -41 24 -17 54 -31 65 -31 10 0 32 -11 48 -24 34 -28 87 -56 106 -56
8 0 21 -8 28 -17 8 -9 42 -29 76 -44 34 -16 64 -33 68 -38 3 -6 27 -20 53 -31
26 -12 56 -30 67 -40 11 -10 38 -26 60 -35 21 -9 53 -27 69 -39 17 -13 46 -29
64 -36 18 -7 49 -26 69 -41 20 -16 41 -29 48 -29 7 0 32 -16 55 -35 23 -19 48
-35 56 -35 7 0 29 -14 48 -30 18 -17 49 -36 67 -44 19 -8 45 -26 58 -40 13
-14 36 -28 51 -31 15 -3 38 -17 51 -31 13 -14 41 -35 62 -45 20 -11 37 -23 37
-27 0 -5 19 -19 43 -32 23 -13 49 -30 57 -39 8 -8 37 -29 65 -48 27 -18 70
-49 95 -68 25 -20 58 -43 74 -53 16 -9 48 -33 72 -52 24 -19 64 -51 89 -70 25
-19 63 -49 83 -65 20 -17 48 -38 62 -47 14 -8 38 -26 54 -39 81 -69 145 -123
178 -152 20 -17 53 -47 75 -64 229 -192 238 -201 453 -404 123 -116 393 -386
495 -494 17 -18 57 -61 91 -96 33 -35 104 -116 157 -179 53 -63 112 -133 132
-155 63 -72 189 -224 223 -267 18 -24 50 -65 70 -91 20 -27 65 -82 99 -122 33
-41 71 -92 84 -114 12 -23 26 -41 31 -41 4 0 15 -15 24 -32 9 -18 32 -50 50
-71 19 -20 34 -40 34 -45 0 -4 16 -25 35 -46 19 -22 35 -45 35 -52 0 -7 15
-30 33 -53 56 -70 99 -132 119 -172 17 -33 69 -113 107 -165 17 -23 31 -45 31
-49 0 -5 26 -47 58 -93 31 -46 68 -105 80 -130 13 -26 35 -59 48 -75 13 -16
27 -41 30 -55 4 -15 15 -36 24 -47 10 -11 28 -40 41 -65 12 -25 32 -58 44 -75
12 -16 27 -45 33 -63 6 -19 23 -47 36 -63 14 -16 30 -46 35 -66 6 -20 23 -52
39 -72 16 -20 32 -49 36 -66 4 -16 20 -48 35 -70 16 -22 32 -54 35 -72 4 -17
20 -50 36 -71 16 -22 34 -59 40 -83 7 -23 22 -56 35 -73 13 -17 28 -51 35 -76
7 -25 22 -58 34 -75 12 -16 28 -52 36 -78 7 -27 23 -64 36 -83 13 -18 28 -53
35 -76 6 -24 19 -54 28 -68 25 -37 39 -70 51 -119 6 -24 22 -60 35 -80 12 -20
26 -54 30 -76 3 -22 19 -65 34 -95 16 -30 36 -83 45 -118 8 -34 25 -75 36 -90
11 -15 25 -53 31 -86 13 -70 24 -103 43 -121 7 -8 19 -45 26 -82 7 -37 26 -96
42 -131 16 -34 34 -92 39 -129 5 -36 19 -81 30 -100 11 -18 27 -69 35 -114 7
-44 25 -108 39 -142 14 -34 30 -97 36 -140 5 -43 20 -102 34 -132 13 -31 28
-93 34 -144 6 -49 23 -123 36 -163 14 -40 32 -125 39 -188 8 -63 25 -149 39
-190 16 -51 27 -112 32 -190 4 -63 15 -146 25 -185 32 -126 40 -178 50 -345
10 -162 30 -327 51 -425 7 -32 13 -328 16 -838 5 -797 0 -997 -31 -1157 -8
-41 -20 -140 -26 -220 -20 -267 -30 -344 -53 -440 -14 -53 -27 -145 -31 -208
-4 -78 -14 -136 -31 -189 -14 -42 -32 -132 -41 -201 -8 -69 -20 -134 -25 -144
-20 -37 -38 -113 -48 -198 -5 -47 -21 -112 -35 -146 -14 -34 -29 -97 -35 -140
-5 -43 -21 -105 -35 -137 -14 -31 -31 -90 -37 -130 -6 -39 -22 -92 -35 -116
-14 -25 -29 -75 -34 -112 -9 -66 -16 -87 -46 -141 -8 -15 -20 -56 -26 -90 -6
-35 -23 -85 -38 -113 -15 -27 -33 -78 -38 -113 -6 -34 -19 -75 -30 -90 -26
-38 -42 -79 -42 -106 0 -12 -16 -53 -35 -91 -19 -38 -37 -88 -41 -112 -3 -23
-13 -48 -21 -54 -17 -15 -43 -74 -43 -101 0 -11 -18 -54 -40 -95 -22 -42 -40
-86 -40 -99 0 -12 -11 -36 -25 -53 -14 -16 -33 -54 -41 -83 -9 -29 -22 -60
-29 -68 -20 -23 -42 -72 -49 -108 -3 -19 -17 -47 -31 -64 -14 -16 -28 -47 -31
-69 -4 -22 -20 -56 -35 -76 -16 -19 -34 -54 -40 -76 -6 -22 -23 -56 -39 -76
-15 -20 -31 -50 -35 -68 -3 -18 -20 -49 -36 -69 -16 -20 -33 -53 -39 -73 -5
-20 -21 -49 -35 -65 -14 -16 -30 -46 -35 -66 -5 -20 -21 -47 -35 -60 -14 -13
-25 -28 -25 -34 0 -17 -38 -84 -60 -106 -11 -11 -20 -28 -20 -38 0 -10 -18
-41 -40 -71 -22 -29 -40 -61 -40 -71 0 -10 -7 -23 -16 -30 -8 -8 -27 -34 -41
-59 -15 -25 -36 -57 -49 -71 -12 -14 -25 -37 -29 -51 -3 -14 -16 -37 -29 -50
-12 -13 -31 -40 -42 -59 -10 -19 -31 -50 -46 -68 -16 -18 -28 -41 -28 -51 0
-9 -14 -33 -31 -52 -17 -19 -40 -51 -52 -71 -11 -21 -25 -38 -29 -38 -5 0 -18
-19 -28 -43 -11 -24 -29 -52 -41 -63 -11 -10 -29 -35 -39 -54 -10 -19 -30 -45
-44 -57 -14 -12 -28 -34 -32 -47 -3 -14 -17 -32 -30 -41 -13 -8 -24 -21 -24
-29 0 -7 -21 -38 -47 -69 -27 -31 -61 -75 -78 -97 -16 -23 -43 -56 -58 -75
-16 -19 -38 -48 -50 -64 -54 -73 -91 -119 -146 -180 -33 -36 -77 -88 -100
-116 -22 -27 -54 -66 -71 -85 -17 -19 -44 -51 -60 -70 -16 -19 -39 -46 -50
-60 -40 -47 -409 -436 -461 -485 -6 -5 -61 -59 -123 -120 -154 -151 -345 -328
-364 -339 -9 -5 -27 -22 -40 -38 -13 -15 -29 -28 -35 -28 -7 0 -28 -16 -47
-36 -19 -19 -75 -69 -125 -110 -49 -41 -106 -89 -126 -107 -35 -31 -83 -69
-179 -142 -25 -19 -64 -49 -88 -67 -24 -18 -62 -49 -85 -69 -23 -20 -57 -44
-75 -53 -18 -9 -38 -25 -45 -36 -6 -11 -20 -20 -29 -20 -10 0 -37 -18 -59 -40
-23 -22 -47 -40 -53 -40 -7 0 -23 -12 -37 -26 -13 -15 -43 -35 -66 -46 -24
-10 -47 -27 -53 -38 -5 -10 -25 -23 -43 -29 -19 -7 -44 -23 -56 -37 -12 -14
-37 -32 -54 -39 -18 -7 -41 -23 -52 -35 -11 -12 -35 -28 -53 -36 -19 -8 -50
-27 -68 -44 -19 -16 -43 -30 -53 -30 -11 0 -29 -11 -42 -25 -13 -14 -44 -35
-69 -46 -25 -11 -54 -28 -65 -39 -11 -10 -39 -26 -63 -35 -23 -10 -47 -25 -52
-35 -5 -10 -32 -26 -58 -34 -27 -9 -58 -27 -69 -40 -11 -12 -41 -28 -66 -35
-28 -8 -49 -21 -52 -32 -4 -10 -26 -24 -55 -34 -27 -9 -65 -29 -84 -44 -20
-16 -51 -32 -69 -35 -19 -3 -44 -17 -57 -31 -13 -13 -46 -31 -75 -39 -28 -9
-60 -24 -69 -35 -10 -11 -41 -28 -70 -37 -28 -9 -63 -27 -78 -39 -14 -12 -46
-27 -71 -34 -25 -6 -58 -21 -74 -34 -15 -13 -50 -30 -76 -37 -26 -7 -59 -22
-73 -32 -14 -11 -51 -28 -83 -38 -32 -9 -67 -26 -78 -37 -11 -11 -45 -26 -74
-33 -30 -7 -74 -25 -99 -41 -25 -15 -65 -30 -90 -34 -25 -4 -63 -19 -84 -33
-22 -15 -65 -32 -96 -38 -31 -7 -74 -24 -95 -38 -39 -27 -48 -30 -117 -41 -21
-3 -50 -16 -65 -29 -18 -15 -48 -26 -83 -31 -60 -8 -115 -28 -140 -50 -8 -7
-44 -18 -80 -24 -36 -6 -87 -22 -115 -37 -28 -15 -87 -32 -134 -40 -46 -7 -91
-20 -100 -27 -22 -19 -42 -26 -149 -47 -50 -10 -111 -28 -135 -39 -23 -11 -77
-25 -120 -31 -43 -5 -86 -14 -96 -20 -40 -21 -110 -39 -191 -50 -91 -12 -139
-24 -182 -47 -15 -8 -81 -18 -145 -24 -71 -5 -149 -19 -198 -34 -44 -13 -141
-31 -216 -39 -74 -8 -182 -26 -240 -40 -72 -17 -148 -27 -249 -31 -80 -4 -206
-16 -280 -27 -74 -11 -166 -24 -205 -29 -38 -5 -362 -12 -720 -15 -717 -7
-1042 3 -1248 36 -70 11 -217 27 -329 35 -130 9 -232 21 -283 34 -44 12 -120
26 -170 31 -161 19 -226 30 -286 50 -33 11 -111 24 -174 30 -63 5 -129 16
-147 24 -44 21 -139 43 -216 51 -34 4 -95 19 -135 35 -40 15 -101 30 -137 34
-35 4 -87 18 -115 31 -27 13 -79 29 -115 35 -72 14 -130 31 -175 53 -16 8 -64
20 -105 27 -41 6 -86 19 -100 29 -32 23 -86 41 -120 41 -14 0 -56 15 -94 34
-39 20 -91 37 -124 41 -34 4 -71 16 -92 30 -19 13 -63 31 -97 39 -34 8 -75 23
-90 33 -33 23 -87 43 -118 43 -12 0 -42 13 -67 30 -25 16 -68 34 -96 40 -28 5
-68 20 -89 34 -21 13 -63 31 -94 40 -31 9 -62 23 -69 31 -7 8 -41 24 -77 35
-36 11 -76 29 -89 39 -14 11 -49 27 -77 37 -29 9 -59 22 -67 29 -24 20 -78 45
-97 45 -10 0 -31 11 -47 25 -15 13 -51 32 -80 41 -28 9 -64 27 -79 40 -15 13
-45 28 -65 34 -21 5 -48 19 -59 30 -12 11 -45 29 -74 40 -28 11 -65 31 -82 44
-18 14 -45 28 -62 32 -16 4 -45 20 -63 35 -18 16 -45 32 -60 35 -15 4 -38 17
-52 30 -14 13 -43 30 -64 39 -22 9 -55 29 -75 45 -20 15 -47 31 -60 35 -13 4
-43 21 -67 39 -72 52 -107 75 -150 96 -23 11 -47 27 -55 36 -7 8 -31 25 -53
36 -23 11 -56 34 -74 49 -18 16 -41 29 -51 29 -9 0 -28 12 -42 26 -13 14 -40
34 -59 44 -19 10 -43 27 -54 39 -10 11 -34 25 -52 31 -19 7 -39 20 -44 31 -6
10 -25 26 -43 35 -18 9 -49 32 -70 50 -20 19 -43 34 -50 34 -7 0 -26 14 -42
30 -16 17 -34 30 -40 30 -6 0 -31 18 -56 40 -24 23 -56 48 -72 56 -15 8 -27
18 -27 22 0 4 -17 18 -37 32 -64 43 -227 173 -322 257 -32 28 -82 71 -265 227
-232 198 -803 769 -1003 1003 -55 64 -242 285 -281 332 -20 24 -54 63 -74 86
-21 23 -38 46 -38 51 0 5 -13 24 -30 42 -16 18 -30 37 -30 42 0 4 -13 21 -28
38 -15 16 -40 46 -56 66 -15 20 -36 44 -45 54 -10 9 -26 33 -36 52 -10 19 -24
39 -31 43 -8 4 -23 25 -34 45 -11 20 -43 64 -70 97 -28 33 -57 74 -65 90 -13
28 -63 100 -117 169 -13 16 -32 46 -43 66 -27 51 -78 129 -108 165 -13 17 -28
41 -32 55 -4 14 -17 36 -30 50 -13 14 -32 44 -44 67 -11 23 -26 45 -32 49 -6
3 -21 30 -34 58 -12 28 -32 59 -43 70 -12 10 -26 35 -33 55 -6 20 -19 45 -28
56 -27 32 -51 73 -51 88 0 7 -8 22 -19 33 -10 11 -28 41 -39 67 -11 26 -32 61
-45 79 -13 18 -27 44 -30 58 -4 14 -16 39 -27 55 -36 54 -39 60 -44 86 -3 14
-19 45 -36 70 -16 24 -34 60 -40 80 -6 20 -24 53 -40 74 -17 21 -30 48 -30 59
0 12 -14 44 -31 71 -17 27 -38 72 -46 100 -8 27 -23 59 -33 70 -9 11 -27 50
-40 88 -12 37 -25 67 -30 67 -5 0 -16 21 -25 48 -9 26 -32 79 -50 117 -18 39
-36 86 -39 106 -4 21 -17 52 -29 70 -12 19 -29 59 -36 89 -8 29 -26 77 -41
105 -15 27 -33 73 -39 100 -7 28 -21 64 -31 81 -11 17 -27 62 -35 100 -9 38
-24 83 -34 99 -9 17 -23 51 -29 78 -7 26 -17 67 -23 92 -7 25 -16 48 -21 51
-14 9 -27 48 -38 122 -6 37 -20 85 -32 107 -11 22 -29 83 -39 135 -11 52 -28
112 -39 133 -11 21 -26 80 -34 131 -8 52 -24 116 -36 142 -11 27 -26 83 -31
124 -12 85 -31 166 -52 225 -8 22 -20 87 -26 144 -6 57 -22 142 -36 190 -14
47 -28 127 -31 176 -3 50 -19 155 -35 235 -16 80 -32 179 -34 220 -17 247 -29
360 -36 360 -5 0 -9 -9 -9 -20 0 -11 -4 -20 -10 -20 -7 0 -10 387 -10 1140 0
753 3 1140 10 1140 6 0 10 -9 10 -20 0 -11 4 -20 9 -20 9 0 19 87 27 263 4 68
19 188 36 272 16 83 33 202 39 265 5 63 21 153 34 200 13 47 31 138 39 202 8
64 20 127 27 140 16 30 26 73 44 187 8 52 26 122 40 156 13 33 27 92 31 130 3
41 17 93 31 123 13 30 31 91 39 135 8 45 25 105 39 132 13 28 29 80 35 117 10
67 17 87 46 140 8 15 19 53 25 85 6 32 22 83 36 113 14 30 32 82 40 115 8 33
22 73 31 90 10 16 23 50 31 75 7 25 25 72 41 105 16 33 35 83 42 110 7 28 23
65 35 84 12 18 25 49 28 70 3 20 21 68 39 106 19 39 39 87 45 107 7 20 20 47
30 60 10 13 26 48 36 78 10 30 26 66 37 79 10 13 26 49 34 80 9 31 25 66 36
77 10 12 25 41 33 66 7 24 24 61 38 81 14 21 31 54 38 75 7 20 24 54 40 75 15
21 31 53 35 70 3 18 17 44 29 59 13 15 29 44 35 65 7 21 22 52 34 68 12 17 34
55 48 85 14 31 33 62 42 69 9 7 16 21 16 31 0 9 18 42 40 73 22 30 40 62 40
70 0 9 10 28 23 44 34 42 57 81 57 96 0 8 9 22 21 33 12 10 30 37 41 59 12 22
34 56 49 75 16 19 29 40 29 47 0 7 18 36 40 65 22 29 40 58 40 64 0 6 10 19
21 30 12 10 30 37 41 59 10 22 43 74 73 115 30 41 62 88 71 104 13 24 79 112
126 171 15 19 58 80 75 108 10 16 34 47 53 69 19 23 42 51 50 63 25 37 73 98
102 129 16 17 28 35 28 42 0 7 10 21 23 31 13 10 32 32 42 48 11 17 34 46 51
65 18 19 65 73 104 120 39 47 84 99 98 116 15 18 45 53 67 79 163 193 760 795
953 961 21 18 93 80 162 139 69 59 150 129 180 155 30 27 78 66 105 87 28 21
55 45 62 54 7 9 26 22 43 29 16 7 30 16 30 20 0 3 21 21 46 40 25 18 56 41 67
52 52 46 119 98 127 98 4 0 26 15 48 33 22 17 53 40 68 50 16 9 56 37 89 62
33 25 73 53 89 63 15 9 46 32 68 50 22 17 44 32 49 32 5 0 26 15 46 34 21 18
49 37 63 41 14 4 39 20 55 35 17 15 44 32 62 39 17 7 40 22 50 33 9 11 33 26
53 34 19 8 46 26 60 39 14 13 42 31 62 39 20 9 40 20 43 26 4 6 30 22 58 37
29 14 66 36 82 48 17 13 41 26 55 30 14 4 34 15 45 25 18 16 57 38 194 110 26
14 60 35 75 48 16 12 35 22 42 22 16 0 78 34 113 61 13 11 31 19 40 19 9 0 41
16 71 35 30 19 60 35 68 35 17 0 72 28 97 50 11 9 41 23 67 30 26 7 55 21 64
31 10 11 40 26 68 34 28 8 66 26 86 39 19 13 61 31 91 40 31 8 62 23 69 31 7
8 38 22 69 31 31 9 70 25 88 35 17 11 60 29 95 40 34 12 81 31 103 44 22 13
56 26 75 30 19 4 60 19 90 35 30 15 80 33 110 39 30 7 72 23 92 36 20 13 64
29 98 34 34 6 81 21 104 35 23 13 68 29 100 35 33 6 87 24 121 41 34 16 75 30
91 30 34 0 129 24 147 37 20 14 79 31 136 38 30 4 85 20 122 36 37 16 99 33
138 39 38 5 99 21 133 34 35 13 103 29 150 35 47 6 113 20 145 30 77 25 144
38 223 45 62 6 208 38 228 50 5 3 71 12 148 20 76 8 177 24 224 35 47 12 148
25 225 31 77 5 185 15 239 21 94 11 98 12 70 25 -24 10 176 12 1121 13 829 0
1143 -3 1125 -11z m23905 -13098 c55 -5 134 -12 175 -15 41 -3 108 -13 149
-21 41 -8 135 -19 210 -25 169 -12 246 -23 337 -48 39 -10 115 -22 170 -26 66
-5 127 -16 184 -35 47 -15 126 -33 176 -39 54 -7 115 -21 147 -36 32 -14 94
-29 144 -35 55 -7 97 -18 113 -29 24 -17 69 -30 179 -51 29 -6 84 -24 121 -40
38 -17 81 -30 97 -30 15 0 53 -13 84 -29 31 -16 79 -32 105 -36 27 -4 74 -20
105 -35 31 -15 80 -33 108 -39 28 -6 68 -22 89 -36 21 -13 62 -29 92 -35 30
-6 70 -21 90 -35 19 -13 58 -29 85 -36 28 -7 70 -25 94 -41 25 -15 60 -31 80
-34 19 -4 52 -19 73 -34 21 -15 55 -31 75 -35 21 -4 53 -18 71 -31 17 -14 54
-32 80 -39 27 -8 57 -24 67 -35 10 -11 40 -27 67 -35 26 -7 65 -27 85 -43 21
-17 52 -33 70 -37 17 -3 44 -17 60 -31 15 -13 44 -29 63 -35 19 -6 44 -19 55
-29 24 -21 95 -60 111 -60 6 0 21 -11 34 -25 13 -14 29 -25 35 -25 10 0 93
-50 177 -107 18 -12 51 -31 73 -41 22 -11 46 -27 54 -36 8 -9 30 -24 50 -33
20 -9 54 -32 75 -50 22 -18 45 -33 52 -33 7 0 24 -11 37 -25 13 -14 37 -33 54
-43 40 -22 105 -69 151 -108 21 -17 48 -37 62 -44 14 -7 39 -24 55 -37 114
-92 202 -161 231 -181 19 -12 34 -27 34 -32 0 -5 15 -17 33 -26 40 -21 192
-149 347 -294 298 -279 508 -488 645 -643 17 -19 67 -74 111 -123 45 -49 101
-111 124 -139 23 -27 55 -65 71 -83 16 -18 29 -36 29 -41 0 -4 12 -22 28 -39
15 -17 50 -59 77 -93 28 -35 65 -79 83 -100 17 -20 32 -41 32 -46 0 -6 9 -18
21 -29 12 -10 28 -32 36 -48 15 -29 83 -119 128 -169 14 -15 25 -34 25 -42 0
-8 16 -32 35 -54 19 -21 35 -43 35 -48 0 -5 15 -27 34 -49 19 -22 41 -55 50
-74 18 -39 71 -118 110 -166 14 -18 26 -39 26 -47 0 -9 11 -28 24 -44 13 -15
34 -48 46 -73 13 -25 33 -59 46 -76 13 -17 24 -36 24 -41 0 -6 16 -34 35 -62
19 -28 35 -56 35 -63 0 -7 18 -40 40 -73 22 -33 40 -67 40 -75 0 -9 16 -40 35
-70 19 -30 35 -61 35 -70 0 -8 15 -38 34 -66 19 -28 39 -67 44 -87 6 -19 21
-51 35 -69 14 -18 28 -49 32 -69 4 -20 15 -50 26 -65 10 -16 23 -36 29 -44 5
-8 14 -34 20 -56 5 -23 20 -56 33 -75 13 -19 29 -56 37 -84 7 -27 24 -69 37
-91 13 -23 30 -68 39 -100 8 -33 23 -71 34 -86 11 -14 25 -48 31 -75 7 -26 23
-70 37 -98 14 -27 31 -76 38 -108 8 -32 23 -76 34 -97 11 -22 28 -74 36 -116
9 -42 26 -97 39 -123 13 -25 28 -79 34 -120 5 -42 21 -95 35 -122 15 -29 30
-82 37 -131 6 -46 24 -114 39 -153 16 -41 30 -101 33 -145 4 -41 21 -118 37
-170 18 -58 33 -128 36 -180 4 -47 15 -121 26 -165 31 -125 47 -232 48 -325 1
-47 5 -107 8 -135 6 -42 11 -51 30 -53 l22 -3 0 -1002 c0 -553 -4 -1008 -9
-1016 -5 -7 -13 -11 -19 -7 -6 3 -13 3 -16 -2 -3 -5 -10 -86 -16 -181 -8 -122
-18 -199 -36 -268 -13 -52 -29 -143 -35 -202 -5 -59 -23 -151 -39 -206 -16
-55 -34 -138 -40 -184 -5 -46 -21 -111 -34 -145 -13 -34 -30 -99 -36 -146 -7
-47 -16 -90 -21 -96 -16 -20 -46 -119 -54 -175 -4 -30 -18 -74 -30 -99 -12
-25 -30 -79 -39 -121 -9 -41 -26 -92 -37 -113 -10 -20 -26 -66 -34 -101 -9
-35 -25 -80 -36 -100 -11 -19 -27 -59 -35 -89 -8 -30 -28 -80 -44 -111 -17
-31 -30 -66 -30 -76 0 -11 -13 -46 -29 -77 -16 -32 -37 -83 -46 -114 -9 -31
-22 -62 -30 -68 -8 -7 -23 -38 -32 -69 -10 -31 -30 -74 -44 -96 -14 -22 -29
-56 -33 -76 -4 -21 -16 -49 -27 -64 -12 -14 -30 -49 -41 -77 -10 -28 -30 -65
-43 -82 -13 -17 -27 -44 -31 -61 -4 -16 -22 -52 -41 -79 -18 -26 -33 -57 -33
-68 0 -11 -15 -41 -34 -67 -18 -25 -38 -61 -44 -79 -6 -19 -23 -47 -37 -64
-14 -16 -25 -35 -25 -42 0 -8 -18 -40 -40 -72 -22 -33 -40 -63 -40 -69 0 -5
-16 -30 -35 -54 -19 -24 -35 -49 -35 -56 0 -7 -12 -28 -27 -48 -29 -36 -69
-97 -113 -172 -14 -24 -47 -75 -75 -114 -27 -39 -58 -86 -67 -103 -9 -17 -27
-42 -40 -57 -13 -14 -42 -51 -64 -81 -22 -30 -50 -68 -62 -85 -12 -16 -34 -47
-48 -68 -14 -21 -36 -51 -49 -65 -50 -58 -102 -122 -140 -172 -22 -30 -49 -63
-60 -75 -11 -11 -29 -34 -39 -50 -11 -17 -36 -47 -55 -69 -45 -49 -85 -92
-136 -148 -236 -259 -403 -430 -606 -618 -62 -58 -127 -119 -144 -136 -54 -56
-236 -209 -361 -304 -25 -19 -58 -46 -74 -60 -15 -14 -34 -29 -43 -35 -29 -20
-123 -94 -149 -118 -16 -14 -37 -28 -47 -32 -11 -3 -34 -20 -52 -36 -18 -17
-46 -37 -63 -46 -17 -9 -35 -22 -39 -29 -4 -8 -27 -24 -50 -35 -23 -12 -45
-27 -49 -34 -5 -7 -33 -27 -63 -44 -30 -17 -55 -35 -55 -39 0 -5 -22 -19 -50
-32 -27 -13 -50 -27 -50 -32 0 -4 -26 -21 -57 -37 -32 -16 -67 -38 -77 -50
-11 -12 -27 -21 -37 -21 -10 0 -34 -14 -53 -30 -18 -17 -51 -37 -72 -46 -22
-9 -50 -26 -64 -39 -14 -12 -37 -25 -52 -29 -14 -3 -40 -17 -56 -31 -17 -14
-45 -31 -64 -37 -18 -6 -54 -26 -79 -44 -26 -19 -56 -34 -66 -34 -11 0 -37
-14 -58 -30 -21 -17 -56 -35 -79 -42 -23 -7 -43 -15 -46 -18 -14 -17 -69 -48
-95 -54 -16 -4 -54 -23 -85 -42 -30 -19 -64 -34 -76 -34 -11 0 -44 -16 -74
-35 -30 -19 -62 -35 -72 -35 -23 0 -68 -20 -93 -41 -11 -9 -42 -22 -69 -28
-27 -7 -68 -23 -90 -36 -23 -13 -65 -29 -93 -35 -28 -6 -71 -24 -95 -39 -24
-16 -62 -31 -85 -35 -24 -3 -69 -19 -100 -35 -32 -16 -78 -32 -103 -35 -25 -4
-72 -20 -105 -35 -33 -16 -87 -34 -120 -41 -33 -7 -76 -20 -95 -30 -49 -26
-98 -40 -135 -40 -38 0 -86 -14 -135 -40 -20 -10 -76 -25 -126 -33 -50 -8
-110 -24 -134 -36 -25 -12 -83 -26 -134 -32 -50 -5 -134 -23 -186 -39 -61 -19
-136 -33 -208 -40 -62 -5 -149 -20 -195 -34 -62 -19 -124 -27 -252 -35 -93 -6
-204 -18 -245 -27 -120 -25 -242 -34 -610 -44 -218 -6 -488 -6 -735 0 -391 10
-484 17 -631 45 -44 9 -153 20 -244 26 -121 8 -188 17 -250 35 -47 14 -135 29
-197 34 -76 7 -140 19 -200 39 -54 18 -123 32 -178 36 -49 4 -94 11 -100 14
-30 22 -118 50 -172 55 -70 7 -79 9 -149 43 -29 13 -78 27 -110 30 -33 3 -88
19 -123 34 -35 16 -93 34 -129 39 -36 6 -79 20 -95 32 -16 12 -65 29 -109 40
-44 10 -99 29 -121 42 -23 13 -61 27 -85 30 -24 4 -60 17 -80 30 -20 14 -65
31 -99 40 -35 8 -80 27 -101 41 -21 13 -58 29 -82 33 -25 5 -62 21 -84 35 -21
15 -54 30 -75 33 -20 4 -58 22 -86 40 -27 17 -67 35 -87 38 -21 4 -50 18 -64
31 -24 22 -80 45 -110 45 -6 0 -21 11 -34 25 -13 13 -46 31 -74 39 -29 9 -62
26 -75 40 -12 13 -38 27 -58 31 -19 3 -54 21 -78 40 -24 18 -58 36 -74 40 -16
3 -35 13 -42 22 -7 8 -41 28 -76 45 -35 16 -63 33 -63 37 0 4 -19 16 -42 27
-24 10 -58 31 -76 46 -18 15 -41 28 -51 28 -10 0 -41 18 -67 40 -27 22 -56 40
-65 40 -8 0 -26 11 -39 26 -14 14 -44 34 -67 44 -24 10 -46 26 -49 34 -3 8
-22 21 -42 30 -20 8 -50 28 -65 45 -16 17 -40 34 -55 38 -14 3 -37 19 -50 35
-13 15 -30 28 -38 28 -8 0 -34 18 -58 40 -24 22 -51 40 -59 40 -9 0 -24 11
-33 25 -9 13 -25 27 -36 30 -19 7 -91 65 -160 130 -20 19 -44 35 -52 35 -9 0
-23 11 -32 25 -9 13 -26 27 -37 31 -12 3 -35 20 -52 36 -16 16 -57 52 -90 79
-66 55 -68 57 -93 80 -9 10 -37 35 -62 58 -94 85 -145 132 -154 140 -63 66
-135 131 -143 131 -6 0 -15 11 -21 25 -7 14 -23 30 -38 35 -14 6 -28 18 -31
28 -2 10 -18 26 -34 36 -16 9 -29 22 -29 27 0 6 -36 46 -80 89 -44 43 -80 83
-80 87 0 5 -13 17 -30 26 -16 10 -30 23 -30 29 0 7 -15 26 -32 44 -18 17 -63
65 -100 105 -37 41 -86 94 -109 119 -23 25 -49 56 -58 70 -9 14 -26 36 -39 50
-47 51 -92 108 -92 115 0 7 -35 50 -98 119 -9 11 -32 40 -50 65 -18 25 -36 48
-41 51 -5 3 -18 24 -30 48 -12 24 -28 45 -36 48 -7 3 -18 17 -24 32 -6 15 -27
42 -46 61 -20 19 -38 46 -42 60 -3 14 -19 38 -34 53 -16 15 -29 33 -29 42 0 8
-18 33 -39 56 -21 23 -41 55 -45 71 -3 16 -15 37 -26 46 -12 10 -28 33 -36 52
-8 18 -27 47 -44 64 -16 16 -32 43 -35 59 -4 16 -20 43 -36 59 -16 16 -32 42
-35 57 -4 15 -17 38 -29 52 -13 14 -26 36 -30 50 -4 14 -19 41 -34 60 -35 44
-51 74 -51 95 0 9 -14 30 -30 48 -17 18 -35 50 -41 72 -6 22 -22 55 -36 73
-13 18 -31 53 -40 78 -8 25 -26 57 -38 70 -12 13 -25 39 -29 57 -3 17 -20 51
-36 73 -16 23 -34 63 -40 90 -6 27 -22 60 -35 74 -13 14 -26 37 -29 53 -3 15
-8 37 -11 50 -2 13 -16 36 -31 52 -17 19 -31 50 -39 90 -8 38 -23 72 -37 88
-16 17 -27 47 -35 92 -8 44 -19 74 -32 86 -11 11 -24 32 -27 47 -18 80 -28
108 -49 141 -14 20 -29 64 -34 101 -6 35 -19 76 -29 90 -25 34 -42 86 -42 127
0 18 -13 60 -30 93 -17 33 -35 90 -41 130 -6 40 -24 100 -40 134 -19 41 -29
77 -29 109 0 48 -30 154 -55 192 -7 11 -15 59 -19 105 -8 96 -23 168 -41 190
-20 24 -25 50 -34 181 -7 89 -17 147 -36 204 -22 66 -28 108 -35 240 -9 178
-12 195 -43 310 -22 79 -22 87 -22 945 0 792 1 870 17 920 27 86 38 163 48
335 6 88 17 185 26 215 32 113 43 168 53 278 6 62 17 125 25 140 25 46 35 91
42 176 5 56 15 101 35 148 17 39 34 101 40 147 6 48 19 99 34 128 14 26 30 81
36 121 6 40 23 101 39 135 15 34 33 93 39 130 7 39 22 85 36 105 13 21 27 61
31 92 4 32 18 72 34 97 15 23 33 70 39 103 7 32 16 62 22 65 17 11 46 79 51
121 3 22 17 58 31 80 14 21 32 62 39 89 7 28 22 63 35 78 20 25 43 85 43 113
0 6 11 24 24 39 14 16 30 49 36 74 6 25 23 64 39 86 15 22 33 60 40 85 7 24
21 51 31 60 22 19 40 54 40 77 0 10 15 40 34 66 19 26 37 62 40 81 3 18 19 45
35 60 16 15 32 42 35 60 4 18 15 42 25 53 11 11 33 47 49 80 17 32 37 65 46
72 9 8 16 20 16 28 0 15 23 54 57 96 13 16 23 36 23 44 0 9 15 34 33 57 19 23
42 58 52 79 9 20 21 37 26 37 6 0 18 20 29 44 10 25 28 54 39 65 11 11 31 37
44 58 13 21 32 44 41 52 9 7 16 19 16 26 0 13 58 95 123 171 20 25 37 51 37
58 0 7 14 25 30 41 17 16 30 34 30 41 0 6 14 27 31 45 17 18 37 42 45 53 14
21 55 70 112 136 17 20 32 42 32 48 0 6 10 18 22 26 12 9 27 24 33 35 11 20
80 103 135 160 19 21 82 88 140 151 103 111 208 221 295 310 39 40 138 134
349 332 39 37 116 105 171 153 55 47 114 99 131 115 17 17 36 30 42 30 6 0 27
15 46 33 19 17 58 50 86 72 29 22 71 56 95 75 24 19 61 50 83 68 23 17 45 32
51 32 5 0 30 17 55 38 57 47 121 92 160 114 17 9 42 28 55 42 14 14 30 26 37
26 7 0 34 18 59 40 25 22 52 40 60 40 7 0 32 16 55 35 23 19 48 35 56 35 7 0
28 13 46 29 18 15 54 38 81 49 26 11 47 25 47 30 0 5 22 19 50 31 27 12 61 32
75 45 14 13 38 27 53 31 15 3 43 19 62 34 19 15 57 35 83 45 27 10 51 24 54
32 2 7 27 20 53 29 27 9 65 29 84 44 20 16 51 32 68 35 18 3 46 17 62 31 15
13 52 31 80 39 29 9 61 24 70 35 18 19 48 32 108 45 14 3 39 17 55 29 15 13
50 29 77 36 27 7 63 22 80 35 17 13 55 29 83 36 29 6 64 20 77 31 13 10 53 26
88 35 34 9 86 29 114 45 28 16 61 29 73 29 12 0 52 14 89 31 37 17 95 37 129
44 34 8 82 25 105 38 24 14 67 28 97 31 30 4 76 18 103 32 26 13 94 34 150 45
56 11 113 28 127 38 16 11 61 23 114 30 49 7 113 23 144 36 32 15 93 29 147
36 50 6 132 23 181 39 57 17 134 32 210 39 66 6 149 20 185 32 43 13 125 25
240 34 96 7 229 23 295 34 66 11 172 25 235 29 154 12 1229 14 1355 2z
m-11905 -9330 l0 -200 -280 0 c-273 0 -280 0 -280 -20 0 -20 7 -20 324 -20
282 0 327 -2 340 -16 13 -12 16 -40 16 -140 0 -117 1 -124 20 -124 19 0 20 7
20 120 l0 120 40 0 40 0 0 -40 0 -40 40 0 40 0 0 -120 0 -120 40 0 40 0 0
-160 c0 -153 1 -160 20 -160 19 0 20 -7 20 -120 0 -113 1 -120 20 -120 17 0
20 7 20 40 l0 40 40 0 40 0 0 -80 c0 -73 2 -80 20 -80 19 0 20 -7 20 -120 0
-113 1 -120 20 -120 18 0 20 -7 20 -80 0 -73 2 -80 20 -80 17 0 20 -7 20 -40
0 -33 3 -40 20 -40 17 0 20 7 20 40 l0 40 40 0 40 0 0 -120 0 -120 40 0 40 0
0 -120 c0 -113 -1 -120 -20 -120 -17 0 -20 -7 -20 -40 l0 -40 60 0 60 0 0
-120 0 -120 40 0 40 0 0 -80 c0 -73 2 -80 20 -80 17 0 20 -7 20 -40 0 -33 3
-40 20 -40 17 0 20 -7 20 -40 0 -33 3 -40 20 -40 18 0 20 -7 20 -80 0 -73 2
-80 20 -80 17 0 20 -7 20 -40 l0 -40 40 0 40 0 0 -40 c0 -33 -3 -40 -20 -40
-17 0 -20 -7 -20 -40 0 -33 3 -40 20 -40 17 0 20 -7 20 -40 l0 -40 40 0 40 0
0 -40 c0 -33 -3 -40 -20 -40 -17 0 -20 -7 -20 -40 l0 -40 60 0 60 0 0 -80 c0
-73 -2 -80 -20 -80 -17 0 -20 -7 -20 -40 l0 -40 60 0 60 0 0 -40 c0 -33 -3
-40 -20 -40 -17 0 -20 -7 -20 -40 0 -33 3 -40 20 -40 17 0 20 -7 20 -40 l0
-40 40 0 40 0 0 -40 c0 -33 -3 -40 -20 -40 -17 0 -20 -7 -20 -40 l0 -40 60 0
60 0 0 -40 c0 -33 -3 -40 -20 -40 -17 0 -20 -7 -20 -40 l0 -40 60 0 60 0 0
-40 c0 -33 -3 -40 -20 -40 -17 0 -20 -7 -20 -40 0 -33 3 -40 20 -40 17 0 20
-7 20 -40 0 -33 3 -40 20 -40 17 0 20 -7 20 -40 0 -33 3 -40 20 -40 17 0 20
-7 20 -40 0 -33 3 -40 20 -40 17 0 20 -7 20 -40 0 -33 3 -40 20 -40 18 0 20
-7 20 -80 l0 -80 40 0 40 0 0 -120 0 -120 40 0 40 0 0 -80 0 -80 40 0 40 0 0
-40 c0 -33 -3 -40 -20 -40 -17 0 -20 -7 -20 -40 l0 -40 60 0 60 0 0 -80 0 -80
40 0 40 0 0 -80 0 -80 40 0 40 0 0 -40 0 -40 -40 0 -40 0 0 -80 0 -80 40 0 40
0 0 -40 c0 -33 3 -40 20 -40 17 0 20 -7 20 -40 0 -33 3 -40 20 -40 17 0 20 -7
20 -40 l0 -40 40 0 40 0 0 -120 0 -120 40 0 40 0 0 -80 c0 -73 -2 -80 -20 -80
-17 0 -20 -7 -20 -40 l0 -40 40 0 40 0 0 -40 c0 -33 3 -40 20 -40 17 0 20 -7
20 -40 l0 -40 40 0 40 0 0 -80 0 -80 40 0 40 0 0 -120 0 -120 -40 0 -40 0 0
-40 0 -40 -40 0 -40 0 0 -80 0 -80 -60 0 -60 0 0 -40 0 -40 60 0 60 0 0 -40 0
-40 40 0 40 0 0 -40 0 -40 40 0 40 0 0 -80 0 -80 -40 0 -40 0 0 -40 0 -40 -80
0 -80 0 0 -40 0 -40 -40 0 -40 0 0 -40 0 -40 -80 0 -80 0 0 -40 0 -40 -40 0
-40 0 0 -40 0 -40 -80 0 -80 0 0 -40 0 -40 -80 0 -80 0 0 -40 0 -40 -80 0 -80
0 0 -40 0 -40 -80 0 -80 0 0 -40 0 -40 -80 0 -80 0 0 -40 0 -40 -120 0 -120 0
0 -40 0 -40 -160 0 -160 0 0 -40 0 -40 -200 0 -200 0 0 -40 0 -40 -680 0 -680
0 0 40 0 40 -200 0 -200 0 0 40 0 40 -160 0 -160 0 0 40 0 40 -120 0 -120 0 0
40 0 40 -80 0 -80 0 0 40 0 40 -80 0 -80 0 0 40 0 40 -80 0 -80 0 0 40 0 40
-80 0 -80 0 0 40 0 40 -80 0 -80 0 0 40 0 40 -40 0 -40 0 0 40 0 40 -80 0 -80
0 0 40 0 40 -40 0 -40 0 0 40 0 40 -40 0 -40 0 0 40 0 40 -80 0 -80 0 0 40 0
40 -40 0 -40 0 0 40 0 40 -40 0 -40 0 0 40 0 40 -40 0 -40 0 0 40 0 40 -40 0
-40 0 0 40 0 40 -40 0 -40 0 0 40 0 40 -40 0 -40 0 0 80 0 80 -40 0 -40 0 0
40 0 40 -40 0 -40 0 0 40 0 40 -40 0 -40 0 0 80 0 80 -40 0 -40 0 0 40 0 40
-40 0 -40 0 0 80 0 80 -40 0 -40 0 0 40 0 40 -40 0 -40 0 0 80 0 80 -40 0 -40
0 0 120 0 120 -40 0 -40 0 0 80 0 80 -40 0 -40 0 0 120 0 120 -40 0 -40 0 0
120 0 120 -40 0 -40 0 0 200 0 200 -40 0 -40 0 0 800 0 800 40 0 40 0 0 200 0
200 40 0 40 0 0 120 0 120 40 0 40 0 0 120 0 120 40 0 40 0 0 80 0 80 40 0 40
0 0 80 0 80 40 0 40 0 0 80 0 80 40 0 40 0 0 80 0 80 40 0 40 0 0 80 0 80 40
0 40 0 0 40 0 40 40 0 40 0 0 40 0 40 40 0 40 0 0 80 0 80 40 0 40 0 0 40 0
40 40 0 40 0 0 40 0 40 40 0 40 0 0 40 0 40 40 0 40 0 0 40 0 40 40 0 40 0 0
40 0 40 40 0 40 0 0 40 0 40 40 0 40 0 0 40 0 40 40 0 40 0 0 40 0 40 40 0 40
0 0 40 0 40 40 0 40 0 0 40 0 40 40 0 40 0 0 40 0 40 80 0 80 0 0 40 0 40 40
0 40 0 0 40 0 40 80 0 80 0 0 40 0 40 80 0 80 0 0 40 0 40 40 0 40 0 0 40 0
40 80 0 80 0 0 40 0 40 120 0 120 0 0 40 0 40 80 0 80 0 0 40 0 40 120 0 120
0 0 40 0 40 160 0 160 0 0 40 0 40 240 0 240 0 0 40 0 40 320 0 320 0 0 -200z
m2980 -7084 c0 -3 -4 -8 -10 -11 -5 -3 -10 -1 -10 4 0 6 5 11 10 11 6 0 10 -2
10 -4z m6858 -9466 c151 -8 235 -16 285 -30 72 -19 115 -24 282 -36 50 -4 133
-18 185 -31 52 -14 124 -29 160 -34 142 -20 196 -31 215 -43 28 -18 59 -26
145 -35 45 -5 100 -19 136 -35 33 -15 96 -33 140 -40 43 -7 102 -24 129 -38
28 -15 73 -29 100 -33 28 -4 69 -17 92 -31 23 -13 72 -31 110 -39 37 -9 80
-25 95 -36 15 -10 56 -27 90 -35 35 -9 75 -25 90 -35 14 -11 55 -28 91 -39 35
-11 70 -27 77 -35 7 -8 44 -25 81 -36 38 -12 72 -27 77 -34 4 -7 36 -23 72
-36 36 -12 67 -26 70 -30 10 -14 76 -49 92 -49 9 0 30 -11 47 -25 16 -14 52
-33 78 -42 26 -9 62 -28 80 -44 17 -15 45 -30 60 -33 16 -4 44 -20 62 -36 18
-17 40 -30 49 -30 10 0 41 -18 71 -40 29 -22 60 -40 67 -40 8 0 26 -11 40 -25
14 -14 45 -35 70 -46 24 -12 44 -25 44 -31 0 -5 20 -18 44 -28 24 -11 49 -27
56 -35 8 -9 34 -28 59 -42 25 -15 55 -35 66 -45 23 -21 76 -60 119 -85 27 -17
53 -38 156 -123 23 -19 52 -40 65 -47 12 -7 25 -19 28 -27 3 -8 20 -22 38 -31
17 -9 45 -30 63 -46 17 -16 76 -68 131 -116 55 -47 112 -98 126 -112 14 -14
82 -80 150 -147 198 -193 462 -474 501 -532 9 -14 24 -29 32 -34 9 -5 23 -23
32 -41 9 -18 27 -43 40 -57 34 -37 159 -193 186 -232 22 -33 72 -105 123 -178
14 -19 35 -46 47 -60 11 -14 27 -38 34 -55 7 -16 24 -43 38 -60 15 -16 35 -49
46 -72 10 -24 24 -43 30 -43 6 0 20 -21 31 -47 11 -25 33 -61 49 -80 17 -18
30 -42 30 -52 0 -10 13 -34 29 -54 15 -20 34 -51 41 -69 7 -18 24 -47 36 -64
13 -18 31 -51 40 -75 10 -23 26 -51 36 -61 9 -9 20 -30 24 -45 9 -37 32 -82
55 -106 10 -12 19 -29 19 -39 0 -21 25 -74 45 -98 7 -8 19 -35 25 -60 7 -25
27 -72 46 -106 19 -33 34 -68 34 -76 0 -9 13 -41 29 -72 17 -31 37 -83 45
-116 9 -33 24 -70 34 -81 11 -10 24 -45 31 -77 15 -71 30 -112 49 -134 8 -9
20 -49 28 -89 7 -39 23 -88 35 -107 11 -20 27 -75 36 -122 8 -47 20 -98 27
-115 33 -77 38 -93 43 -140 6 -53 22 -115 46 -180 9 -23 20 -83 26 -135 6 -52
22 -138 36 -190 15 -54 32 -161 40 -250 8 -85 24 -202 35 -260 18 -89 23 -159
29 -452 4 -192 4 -504 0 -695 -6 -298 -10 -362 -28 -443 -12 -52 -28 -165 -36
-252 -8 -88 -25 -199 -40 -255 -14 -54 -31 -147 -39 -208 -7 -60 -23 -133 -34
-160 -11 -28 -25 -86 -32 -130 -7 -44 -23 -104 -36 -132 -12 -29 -30 -91 -39
-138 -8 -47 -24 -100 -35 -117 -10 -18 -25 -65 -33 -103 -8 -39 -24 -86 -35
-105 -12 -19 -28 -66 -38 -105 -9 -38 -27 -86 -40 -105 -13 -20 -28 -56 -32
-80 -5 -25 -20 -66 -34 -91 -14 -25 -33 -70 -41 -100 -9 -30 -27 -69 -41 -87
-13 -18 -29 -53 -35 -77 -6 -24 -22 -61 -36 -81 -14 -20 -30 -55 -36 -77 -6
-22 -21 -54 -34 -71 -12 -17 -29 -49 -36 -71 -7 -22 -21 -49 -30 -60 -10 -11
-28 -45 -42 -76 -14 -31 -30 -59 -36 -63 -6 -4 -19 -27 -30 -51 -11 -25 -31
-60 -45 -78 -14 -19 -26 -40 -26 -48 0 -8 -18 -38 -40 -68 -22 -29 -40 -59
-40 -67 0 -7 -13 -29 -30 -47 -16 -19 -30 -39 -30 -44 0 -6 -15 -30 -32 -54
-18 -24 -42 -60 -53 -80 -11 -20 -47 -72 -80 -115 -33 -44 -64 -86 -70 -95
-39 -60 -78 -114 -130 -178 -33 -40 -70 -89 -83 -107 -12 -19 -27 -34 -32 -34
-6 0 -16 -12 -22 -27 -42 -95 -633 -705 -913 -943 -27 -23 -61 -52 -75 -64
-23 -19 -45 -36 -136 -106 -18 -14 -67 -53 -108 -87 -42 -35 -81 -63 -86 -63
-6 0 -22 -11 -36 -25 -14 -14 -37 -31 -52 -39 -15 -8 -38 -25 -52 -38 -14 -13
-46 -36 -72 -51 -27 -15 -48 -32 -48 -37 0 -4 -15 -13 -34 -20 -18 -6 -44 -22
-57 -36 -13 -14 -39 -32 -57 -40 -19 -7 -47 -25 -64 -39 -16 -14 -34 -25 -40
-25 -6 0 -32 -16 -59 -35 -26 -19 -65 -42 -86 -50 -21 -9 -47 -24 -58 -34 -11
-10 -36 -24 -55 -31 -19 -7 -44 -21 -55 -31 -11 -10 -42 -27 -70 -39 -27 -12
-64 -32 -80 -44 -17 -13 -45 -27 -63 -31 -18 -3 -45 -17 -60 -30 -16 -13 -54
-33 -86 -44 -33 -11 -67 -28 -76 -36 -10 -9 -46 -25 -80 -35 -35 -10 -72 -28
-84 -39 -11 -10 -45 -26 -75 -35 -30 -9 -72 -26 -95 -39 -23 -13 -63 -30 -91
-36 -27 -7 -68 -23 -90 -35 -22 -13 -64 -29 -93 -35 -29 -6 -74 -22 -100 -35
-26 -13 -74 -29 -107 -36 -33 -7 -83 -23 -110 -36 -28 -13 -80 -28 -116 -33
-36 -5 -88 -19 -114 -31 -27 -12 -85 -29 -129 -37 -45 -8 -124 -27 -176 -43
-52 -15 -129 -31 -170 -35 -41 -3 -113 -17 -160 -31 -46 -13 -136 -29 -200
-34 -182 -17 -252 -30 -246 -46 5 -12 -125 -14 -874 -14 -741 0 -879 2 -874
14 8 20 -12 24 -164 37 -136 11 -206 22 -313 52 -30 9 -91 19 -135 23 -43 4
-104 16 -134 26 -30 11 -86 26 -125 34 -38 8 -92 19 -118 24 -26 5 -69 19 -94
31 -26 12 -78 26 -117 31 -39 5 -85 18 -103 29 -17 11 -65 27 -105 35 -40 8
-100 28 -133 44 -33 16 -79 32 -102 35 -24 4 -58 17 -76 29 -19 13 -58 29 -88
36 -30 7 -76 25 -104 40 -27 16 -70 34 -95 40 -25 6 -54 21 -66 31 -12 11 -48
27 -80 36 -32 9 -68 24 -79 33 -11 10 -48 28 -82 40 -34 12 -69 31 -79 41 -9
10 -39 26 -68 35 -28 9 -53 20 -56 24 -7 11 -79 50 -92 50 -6 0 -25 10 -42 23
-37 28 -94 57 -111 57 -7 0 -16 7 -19 16 -3 8 -27 24 -53 36 -27 11 -64 33
-84 49 -19 15 -47 31 -62 34 -15 4 -33 16 -41 26 -7 10 -29 25 -49 34 -20 8
-51 28 -69 43 -18 16 -48 34 -66 42 -18 7 -38 20 -45 30 -7 9 -30 26 -52 38
-22 11 -51 31 -63 45 -13 14 -37 31 -53 37 -16 7 -29 16 -29 21 0 5 -14 16
-31 25 -17 8 -65 43 -106 77 -40 34 -89 73 -107 87 -93 70 -120 92 -231 189
-160 139 -155 134 -350 328 -191 190 -358 364 -425 444 -25 29 -60 69 -77 90
-18 20 -33 40 -33 44 0 4 -15 24 -32 45 -18 21 -55 66 -83 100 -27 35 -59 73
-71 85 -11 12 -26 37 -34 54 -7 17 -18 35 -24 39 -7 4 -27 30 -45 57 -34 50
-55 79 -101 138 -14 18 -31 44 -37 59 -7 14 -28 47 -47 73 -20 26 -36 51 -36
57 0 6 -13 26 -30 45 -16 18 -30 39 -30 46 0 7 -18 36 -40 66 -22 29 -40 61
-40 70 0 10 -9 27 -21 39 -11 13 -31 47 -45 76 -14 30 -31 59 -38 65 -8 7 -24
35 -36 64 -12 29 -30 61 -40 72 -10 11 -26 43 -36 70 -9 28 -27 61 -40 74 -13
13 -24 32 -24 42 0 22 -17 63 -46 109 -13 19 -28 55 -34 80 -7 24 -20 55 -30
68 -10 13 -26 47 -35 75 -10 29 -30 76 -46 104 -16 29 -29 63 -29 76 0 13 -13
48 -29 78 -15 30 -34 79 -41 109 -7 30 -25 82 -40 115 -16 33 -31 80 -35 105
-4 25 -20 72 -35 105 -16 33 -33 94 -40 135 -6 41 -17 84 -24 95 -17 28 -42
117 -55 204 -6 41 -16 80 -22 87 -16 20 -28 70 -39 173 -6 53 -17 121 -26 151
-31 110 -34 128 -49 283 -8 86 -24 203 -36 260 -31 156 -42 461 -35 957 6 430
12 539 41 675 8 39 22 142 30 230 9 102 24 191 40 245 13 47 27 121 31 165 7
90 18 145 40 193 9 18 20 61 25 95 16 100 29 150 50 190 10 21 25 75 32 121 8
46 23 99 35 117 11 19 26 63 33 99 6 36 23 85 35 110 13 25 32 77 42 116 10
39 29 84 41 101 12 16 25 50 28 74 4 24 17 60 29 79 13 19 32 65 44 101 11 37
27 72 35 79 8 7 24 42 35 79 11 36 29 77 40 90 11 13 27 47 35 76 9 29 25 61
36 71 11 9 26 41 35 70 8 29 22 58 31 66 9 7 29 40 45 73 47 97 83 160 111
197 15 19 27 42 27 50 0 8 18 39 40 68 22 29 40 59 40 65 0 7 11 27 25 46 50
66 95 135 115 172 21 37 77 117 104 147 7 8 25 34 39 57 15 23 31 44 38 48 6
4 16 20 23 35 11 28 49 76 119 155 20 23 37 46 37 52 0 5 16 24 35 43 19 19
35 39 35 46 0 7 10 21 23 31 12 10 29 29 38 43 9 14 32 41 50 61 19 19 70 75
114 123 126 139 514 522 630 621 57 50 118 102 135 118 16 15 34 27 40 27 5 0
25 15 44 33 19 17 58 50 86 72 28 22 67 54 88 71 20 17 54 41 75 53 20 12 37
27 37 32 0 5 12 15 28 21 15 7 43 26 63 43 39 31 105 76 168 111 21 11 47 30
59 42 12 12 28 22 36 22 8 0 33 16 56 35 23 19 48 35 55 35 7 0 37 18 66 40
29 21 65 42 81 45 15 4 34 15 40 24 7 10 35 28 61 39 27 12 62 33 79 47 16 14
38 25 48 25 10 0 41 16 69 35 28 19 58 35 67 35 19 0 94 41 94 51 0 4 24 15
54 23 30 9 67 27 83 40 15 12 51 28 78 35 28 7 64 23 80 35 17 12 53 29 80 36
28 8 65 24 84 37 18 12 49 25 70 29 56 9 67 13 104 38 19 13 68 31 110 40 42
9 87 26 101 37 14 11 59 26 99 34 41 8 91 24 112 36 20 12 74 28 121 36 47 7
108 25 135 39 33 16 80 28 135 35 46 5 112 20 147 34 36 14 111 30 177 39 63
8 135 21 160 29 85 27 145 37 283 47 75 5 178 19 228 31 61 14 145 23 262 28
264 12 838 12 1075 1z"/>
<path d="M28800 33280 c0 -18 7 -20 80 -20 73 0 80 2 80 20 0 18 -7 20 -80 20
-73 0 -80 -2 -80 -20z"/>
<path d="M28480 33200 c0 -18 7 -20 80 -20 73 0 80 2 80 20 0 18 -7 20 -80 20
-73 0 -80 -2 -80 -20z"/>
<path d="M28240 33120 c0 -17 7 -20 40 -20 33 0 40 3 40 20 0 17 -7 20 -40 20
-33 0 -40 -3 -40 -20z"/>
<path d="M28080 33040 c0 -17 7 -20 40 -20 33 0 40 3 40 20 0 17 -7 20 -40 20
-33 0 -40 -3 -40 -20z"/>
<path d="M27920 32960 c0 -17 7 -20 40 -20 33 0 40 3 40 20 0 17 -7 20 -40 20
-33 0 -40 -3 -40 -20z"/>
<path d="M29960 32940 c0 -33 3 -40 20 -40 17 0 20 7 20 40 0 33 -3 40 -20 40
-17 0 -20 -7 -20 -40z"/>
<path d="M27760 32880 c0 -17 7 -20 40 -20 33 0 40 3 40 20 0 17 -7 20 -40 20
-33 0 -40 -3 -40 -20z"/>
<path d="M27600 32800 c0 -17 7 -20 40 -20 33 0 40 3 40 20 0 17 -7 20 -40 20
-33 0 -40 -3 -40 -20z"/>
<path d="M27360 32640 c0 -17 7 -20 40 -20 33 0 40 3 40 20 0 17 -7 20 -40 20
-33 0 -40 -3 -40 -20z"/>
<path d="M27120 32480 c0 -17 7 -20 40 -20 33 0 40 3 40 20 0 17 -7 20 -40 20
-33 0 -40 -3 -40 -20z"/>
<path d="M27040 32400 c0 -17 7 -20 40 -20 33 0 40 3 40 20 0 17 -7 20 -40 20
-33 0 -40 -3 -40 -20z"/>
<path d="M26480 31820 c0 -33 3 -40 20 -40 17 0 20 7 20 40 0 33 -3 40 -20 40
-17 0 -20 -7 -20 -40z"/>
<path d="M26400 31740 c0 -33 3 -40 20 -40 17 0 20 7 20 40 0 33 -3 40 -20 40
-17 0 -20 -7 -20 -40z"/>
<path d="M26240 31500 c0 -33 3 -40 20 -40 17 0 20 7 20 40 0 33 -3 40 -20 40
-17 0 -20 -7 -20 -40z"/>
<path d="M26080 31260 c0 -33 3 -40 20 -40 17 0 20 7 20 40 0 33 -3 40 -20 40
-17 0 -20 -7 -20 -40z"/>
<path d="M26000 31100 c0 -33 3 -40 20 -40 17 0 20 7 20 40 0 33 -3 40 -20 40
-17 0 -20 -7 -20 -40z"/>
<path d="M25920 30940 c0 -33 3 -40 20 -40 17 0 20 7 20 40 0 33 -3 40 -20 40
-17 0 -20 -7 -20 -40z"/>
<path d="M25840 30780 c0 -33 3 -40 20 -40 17 0 20 7 20 40 0 33 -3 40 -20 40
-17 0 -20 -7 -20 -40z"/>
<path d="M25760 30540 c0 -33 3 -40 20 -40 17 0 20 7 20 40 0 33 -3 40 -20 40
-17 0 -20 -7 -20 -40z"/>
<path d="M25680 30260 c0 -73 2 -80 20 -80 18 0 20 7 20 80 0 73 -2 80 -20 80
-18 0 -20 -7 -20 -80z"/>
<path d="M25600 29900 c0 -113 1 -120 20 -120 19 0 20 7 20 120 0 113 -1 120
-20 120 -19 0 -20 -7 -20 -120z"/>
<path d="M25600 28500 c0 -73 2 -80 20 -80 18 0 20 7 20 80 0 73 -2 80 -20 80
-18 0 -20 -7 -20 -80z"/>
<path d="M25680 28140 c0 -33 3 -40 20 -40 17 0 20 7 20 40 0 33 -3 40 -20 40
-17 0 -20 -7 -20 -40z"/>
<path d="M25760 27900 c0 -33 3 -40 20 -40 17 0 20 7 20 40 0 33 -3 40 -20 40
-17 0 -20 -7 -20 -40z"/>
<path d="M25840 27660 c0 -33 3 -40 20 -40 17 0 20 7 20 40 0 33 -3 40 -20 40
-17 0 -20 -7 -20 -40z"/>
<path d="M25920 27500 c0 -33 3 -40 20 -40 17 0 20 7 20 40 0 33 -3 40 -20 40
-17 0 -20 -7 -20 -40z"/>
<path d="M26000 27340 c0 -33 3 -40 20 -40 17 0 20 7 20 40 0 33 -3 40 -20 40
-17 0 -20 -7 -20 -40z"/>
<path d="M26080 27180 c0 -33 3 -40 20 -40 17 0 20 7 20 40 0 33 -3 40 -20 40
-17 0 -20 -7 -20 -40z"/>
<path d="M32360 27100 c0 -33 3 -40 20 -40 17 0 20 7 20 40 0 33 -3 40 -20 40
-17 0 -20 -7 -20 -40z"/>
<path d="M26160 27020 c0 -33 3 -40 20 -40 17 0 20 7 20 40 0 33 -3 40 -20 40
-17 0 -20 -7 -20 -40z"/>
<path d="M26320 26780 c0 -33 3 -40 20 -40 17 0 20 7 20 40 0 33 -3 40 -20 40
-17 0 -20 -7 -20 -40z"/>
<path d="M26400 26700 c0 -33 3 -40 20 -40 17 0 20 7 20 40 0 33 -3 40 -20 40
-17 0 -20 -7 -20 -40z"/>
<path d="M27200 25880 c0 -17 7 -20 40 -20 33 0 40 3 40 20 0 17 -7 20 -40 20
-33 0 -40 -3 -40 -20z"/>
<path d="M27280 25800 c0 -17 7 -20 40 -20 33 0 40 3 40 20 0 17 -7 20 -40 20
-33 0 -40 -3 -40 -20z"/>
<path d="M32080 25800 c0 -17 7 -20 40 -20 33 0 40 3 40 20 0 17 -7 20 -40 20
-33 0 -40 -3 -40 -20z"/>
<path d="M27520 25640 c0 -17 7 -20 40 -20 33 0 40 3 40 20 0 17 -7 20 -40 20
-33 0 -40 -3 -40 -20z"/>
<path d="M31840 25640 c0 -17 7 -20 40 -20 33 0 40 3 40 20 0 17 -7 20 -40 20
-33 0 -40 -3 -40 -20z"/>
<path d="M27680 25560 c0 -17 7 -20 40 -20 33 0 40 3 40 20 0 17 -7 20 -40 20
-33 0 -40 -3 -40 -20z"/>
<path d="M31680 25560 c0 -17 7 -20 40 -20 33 0 40 3 40 20 0 17 -7 20 -40 20
-33 0 -40 -3 -40 -20z"/>
<path d="M27840 25480 c0 -17 7 -20 40 -20 33 0 40 3 40 20 0 17 -7 20 -40 20
-33 0 -40 -3 -40 -20z"/>
<path d="M31520 25480 c0 -17 7 -20 40 -20 33 0 40 3 40 20 0 17 -7 20 -40 20
-33 0 -40 -3 -40 -20z"/>
<path d="M28000 25400 c0 -17 7 -20 40 -20 33 0 40 3 40 20 0 17 -7 20 -40 20
-33 0 -40 -3 -40 -20z"/>
<path d="M31360 25400 c0 -17 7 -20 40 -20 33 0 40 3 40 20 0 17 -7 20 -40 20
-33 0 -40 -3 -40 -20z"/>
<path d="M28160 25320 c0 -17 7 -20 40 -20 33 0 40 3 40 20 0 17 -7 20 -40 20
-33 0 -40 -3 -40 -20z"/>
<path d="M31200 25320 c0 -17 7 -20 40 -20 33 0 40 3 40 20 0 17 -7 20 -40 20
-33 0 -40 -3 -40 -20z"/>
<path d="M28400 25240 c0 -17 7 -20 40 -20 33 0 40 3 40 20 0 17 -7 20 -40 20
-33 0 -40 -3 -40 -20z"/>
<path d="M30960 25240 c0 -17 7 -20 40 -20 33 0 40 3 40 20 0 17 -7 20 -40 20
-33 0 -40 -3 -40 -20z"/>
<path d="M28640 25160 c0 -18 7 -20 80 -20 73 0 80 2 80 20 0 18 -7 20 -80 20
-73 0 -80 -2 -80 -20z"/>
<path d="M30640 25160 c0 -18 7 -20 80 -20 73 0 80 2 80 20 0 18 -7 20 -80 20
-73 0 -80 -2 -80 -20z"/>
<path d="M29040 25080 c0 -19 7 -20 120 -20 113 0 120 1 120 20 0 19 -7 20
-120 20 -113 0 -120 -1 -120 -20z"/>
<path d="M30160 25080 c0 -19 7 -20 120 -20 113 0 120 1 120 20 0 19 -7 20
-120 20 -113 0 -120 -1 -120 -20z"/>
</g>
</svg>
